<svg width="161" height="30" viewBox="0 0 161 30" fill="none" xmlns="http://www.w3.org/2000/svg">
<path d="M148.164 22.0002L148.137 2.80322H150.702V22.0002H148.164ZM157.506 22.0002V15.0882L160.044 14.2782V22.0002H157.506ZM157.506 15.0882C157.506 13.8642 157.362 12.9372 157.074 12.3072C156.786 11.6592 156.39 11.2092 155.886 10.9572C155.4 10.7052 154.842 10.5702 154.212 10.5522C153.096 10.5522 152.232 10.9392 151.62 11.7132C151.008 12.4872 150.702 13.5762 150.702 14.9802H149.622C149.622 13.5582 149.829 12.3432 150.243 11.3352C150.657 10.3092 151.251 9.52622 152.025 8.98622C152.817 8.44622 153.753 8.17622 154.833 8.17622C156.471 8.17622 157.749 8.68022 158.667 9.68822C159.603 10.6782 160.062 12.2082 160.044 14.2782L157.506 15.0882Z" fill="white"/>
<path d="M142.985 22.3241C141.635 22.3241 140.591 21.9821 139.853 21.2981C139.115 20.5961 138.746 19.5971 138.746 18.3011V4.28809H141.311V17.9231C141.311 18.5891 141.473 19.1021 141.797 19.4621C142.139 19.8041 142.625 19.9751 143.255 19.9751C143.435 19.9751 143.633 19.9391 143.849 19.8671C144.065 19.7951 144.326 19.6511 144.632 19.4351L145.604 21.4331C145.136 21.7391 144.686 21.9641 144.254 22.1081C143.84 22.2521 143.417 22.3241 142.985 22.3241ZM136.451 10.7141V8.50009H145.145V10.7141H136.451Z" fill="white"/>
<path d="M129.927 14.7373C129.927 13.2793 130.206 12.0913 130.764 11.1733C131.322 10.2553 132.042 9.57129 132.924 9.12129C133.806 8.67129 134.733 8.44629 135.705 8.44629V10.8763C134.895 10.8763 134.121 11.0023 133.383 11.2543C132.663 11.4883 132.069 11.8843 131.601 12.4423C131.151 12.9823 130.926 13.7203 130.926 14.6563L129.927 14.7373ZM128.361 22.0003V8.50029H130.926V22.0003H128.361Z" fill="white"/>
<path d="M122.702 22.0003L122.567 19.6513V14.9533C122.567 13.9633 122.45 13.1443 122.216 12.4963C122 11.8303 121.658 11.3263 121.19 10.9843C120.74 10.6423 120.137 10.4713 119.381 10.4713C118.679 10.4713 118.058 10.6153 117.518 10.9033C116.996 11.1913 116.564 11.6413 116.222 12.2533L113.9 11.3893C114.224 10.7773 114.638 10.2283 115.142 9.74227C115.646 9.25627 116.249 8.87827 116.951 8.60827C117.671 8.32027 118.499 8.17627 119.435 8.17627C120.695 8.17627 121.748 8.41927 122.594 8.90527C123.458 9.39127 124.097 10.1203 124.511 11.0923C124.943 12.0463 125.15 13.2343 125.132 14.6563L125.105 22.0003H122.702ZM118.76 22.3243C117.158 22.3243 115.907 21.9643 115.007 21.2443C114.125 20.5063 113.684 19.4893 113.684 18.1933C113.684 16.8073 114.143 15.7543 115.061 15.0343C115.997 14.2963 117.293 13.9273 118.949 13.9273H122.702V15.9523H119.651C118.409 15.9523 117.536 16.1503 117.032 16.5463C116.528 16.9243 116.276 17.4553 116.276 18.1393C116.276 18.7693 116.51 19.2643 116.978 19.6243C117.464 19.9663 118.13 20.1373 118.976 20.1373C119.714 20.1373 120.344 19.9663 120.866 19.6243C121.406 19.2823 121.82 18.8323 122.108 18.2743C122.414 17.6983 122.567 17.0593 122.567 16.3573H123.782C123.782 18.1933 123.359 19.6513 122.513 20.7313C121.667 21.7933 120.416 22.3243 118.76 22.3243Z" fill="white"/>
<path d="M105.615 22.3243C104.301 22.3243 103.14 22.0273 102.132 21.4333C101.124 20.8213 100.332 19.9843 99.7556 18.9223C99.1796 17.8603 98.8916 16.6363 98.8916 15.2503C98.8916 13.8643 99.1796 12.6403 99.7556 11.5783C100.332 10.5163 101.124 9.68827 102.132 9.09427C103.158 8.48227 104.328 8.17627 105.642 8.17627C106.866 8.17627 107.946 8.49127 108.882 9.12127C109.836 9.73327 110.574 10.6153 111.096 11.7673C111.636 12.9013 111.906 14.2423 111.906 15.7903H109.341C109.359 14.6383 109.215 13.6663 108.909 12.8743C108.621 12.0823 108.189 11.4883 107.613 11.0923C107.055 10.6783 106.38 10.4713 105.588 10.4713C104.742 10.4713 104.013 10.6693 103.401 11.0653C102.789 11.4433 102.312 11.9923 101.97 12.7123C101.646 13.4143 101.484 14.2783 101.484 15.3043C101.484 16.2583 101.673 17.0863 102.051 17.7883C102.429 18.4723 102.942 19.0123 103.59 19.4083C104.238 19.7863 104.976 19.9753 105.804 19.9753C106.686 19.9753 107.415 19.7683 107.991 19.3543C108.585 18.9403 109.053 18.4093 109.395 17.7613L111.69 18.8143C111.33 19.5163 110.862 20.1373 110.286 20.6773C109.71 21.1993 109.026 21.6043 108.234 21.8923C107.46 22.1803 106.587 22.3243 105.615 22.3243ZM100.566 15.7903L100.593 13.6843H110.475V15.7903H100.566Z" fill="white"/>
<path d="M91.8004 14.7373C91.8004 13.2793 92.0794 12.0913 92.6374 11.1733C93.1954 10.2553 93.9154 9.57129 94.7974 9.12129C95.6794 8.67129 96.6064 8.44629 97.5784 8.44629V10.8763C96.7684 10.8763 95.9944 11.0023 95.2564 11.2543C94.5364 11.4883 93.9424 11.8843 93.4744 12.4423C93.0244 12.9823 92.7994 13.7203 92.7994 14.6563L91.8004 14.7373ZM90.2344 22.0003V8.50029H92.7994V22.0003H90.2344Z" fill="white"/>
<path d="M81.4095 22.3243C80.0955 22.3243 78.9345 22.0273 77.9265 21.4333C76.9185 20.8213 76.1265 19.9843 75.5505 18.9223C74.9745 17.8603 74.6865 16.6363 74.6865 15.2503C74.6865 13.8643 74.9745 12.6403 75.5505 11.5783C76.1265 10.5163 76.9185 9.68827 77.9265 9.09427C78.9525 8.48227 80.1225 8.17627 81.4365 8.17627C82.6605 8.17627 83.7405 8.49127 84.6765 9.12127C85.6305 9.73327 86.3685 10.6153 86.8905 11.7673C87.4305 12.9013 87.7005 14.2423 87.7005 15.7903H85.1355C85.1535 14.6383 85.0095 13.6663 84.7035 12.8743C84.4155 12.0823 83.9835 11.4883 83.4075 11.0923C82.8495 10.6783 82.1745 10.4713 81.3825 10.4713C80.5365 10.4713 79.8075 10.6693 79.1955 11.0653C78.5835 11.4433 78.1065 11.9923 77.7645 12.7123C77.4405 13.4143 77.2785 14.2783 77.2785 15.3043C77.2785 16.2583 77.4675 17.0863 77.8455 17.7883C78.2235 18.4723 78.7365 19.0123 79.3845 19.4083C80.0325 19.7863 80.7705 19.9753 81.5985 19.9753C82.4805 19.9753 83.2095 19.7683 83.7855 19.3543C84.3795 18.9403 84.8475 18.4093 85.1895 17.7613L87.4845 18.8143C87.1245 19.5163 86.6565 20.1373 86.0805 20.6773C85.5045 21.1993 84.8205 21.6043 84.0285 21.8923C83.2545 22.1803 82.3815 22.3243 81.4095 22.3243ZM76.3605 15.7903L76.3875 13.6843H86.2695V15.7903H76.3605Z" fill="white"/>
<path d="M64.8219 17.9231L63.2289 16.1681L70.3299 8.5001H73.4619L64.8219 17.9231ZM62.3379 22.0001V3.1001H64.9029V22.0001H62.3379ZM70.8969 22.0001L65.9289 14.6021L67.6029 12.8201L73.9749 22.0001H70.8969Z" fill="white"/>
<path d="M53.8602 22.3243C52.5102 22.3243 51.3132 22.0273 50.2692 21.4333C49.2252 20.8213 48.4062 19.9843 47.8122 18.9223C47.2362 17.8603 46.9482 16.6363 46.9482 15.2503C46.9482 13.8643 47.2362 12.6403 47.8122 11.5783C48.4062 10.5163 49.2162 9.68827 50.2422 9.09427C51.2862 8.48227 52.4742 8.17627 53.8062 8.17627C55.1202 8.17627 56.2992 8.48227 57.3432 9.09427C58.4052 9.70627 59.1972 10.5793 59.7192 11.7133L57.3972 12.6853C57.0552 12.0193 56.5602 11.4973 55.9122 11.1193C55.2822 10.7413 54.5532 10.5523 53.7252 10.5523C52.9152 10.5523 52.1952 10.7503 51.5652 11.1463C50.9352 11.5423 50.4402 12.1003 50.0802 12.8203C49.7202 13.5223 49.5402 14.3323 49.5402 15.2503C49.5402 16.1683 49.7202 16.9783 50.0802 17.6803C50.4402 18.3823 50.9442 18.9403 51.5922 19.3543C52.2402 19.7503 52.9692 19.9483 53.7792 19.9483C54.6072 19.9483 55.3452 19.7413 55.9932 19.3273C56.6412 18.8953 57.1272 18.3193 57.4512 17.5993L59.8002 18.5443C59.2782 19.7323 58.4862 20.6593 57.4242 21.3253C56.3802 21.9913 55.1922 22.3243 53.8602 22.3243Z" fill="white"/>
<path d="M42.0444 22.0003L41.9094 19.6513V14.9533C41.9094 13.9633 41.7924 13.1443 41.5584 12.4963C41.3424 11.8303 41.0004 11.3263 40.5324 10.9843C40.0824 10.6423 39.4794 10.4713 38.7234 10.4713C38.0214 10.4713 37.4004 10.6153 36.8604 10.9033C36.3384 11.1913 35.9064 11.6413 35.5644 12.2533L33.2424 11.3893C33.5664 10.7773 33.9804 10.2283 34.4844 9.74227C34.9884 9.25627 35.5914 8.87827 36.2934 8.60827C37.0134 8.32027 37.8414 8.17627 38.7774 8.17627C40.0374 8.17627 41.0904 8.41927 41.9364 8.90527C42.8004 9.39127 43.4394 10.1203 43.8534 11.0923C44.2854 12.0463 44.4924 13.2343 44.4744 14.6563L44.4474 22.0003H42.0444ZM38.1024 22.3243C36.5004 22.3243 35.2494 21.9643 34.3494 21.2443C33.4674 20.5063 33.0264 19.4893 33.0264 18.1933C33.0264 16.8073 33.4854 15.7543 34.4034 15.0343C35.3394 14.2963 36.6354 13.9273 38.2914 13.9273H42.0444V15.9523H38.9934C37.7514 15.9523 36.8784 16.1503 36.3744 16.5463C35.8704 16.9243 35.6184 17.4553 35.6184 18.1393C35.6184 18.7693 35.8524 19.2643 36.3204 19.6243C36.8064 19.9663 37.4724 20.1373 38.3184 20.1373C39.0564 20.1373 39.6864 19.9663 40.2084 19.6243C40.7484 19.2823 41.1624 18.8323 41.4504 18.2743C41.7564 17.6983 41.9094 17.0593 41.9094 16.3573H43.1244C43.1244 18.1933 42.7014 19.6513 41.8554 20.7313C41.0094 21.7933 39.7584 22.3243 38.1024 22.3243Z" fill="white"/>
<g clip-path="url(#clip0_693_1233)">
<path fill-rule="evenodd" clip-rule="evenodd" d="M0.544967 2.73005C0 3.79961 0 5.19974 0 8V22C0 24.8003 0 26.2004 0.544967 27.27C1.02433 28.2108 1.78924 28.9757 2.73005 29.455C3.79961 30 5.19974 30 8 30H22C24.8003 30 26.2004 30 27.27 29.455C28.2108 28.9757 28.9757 28.2108 29.455 27.27C30 26.2004 30 24.8003 30 22V8C30 5.19974 30 3.79961 29.455 2.73005C28.9757 1.78924 28.2108 1.02433 27.27 0.544967C26.2004 0 24.8003 0 22 0H12.15L12.15 9.35354C12.517 8.79804 12.9556 8.34819 13.466 8.004C14.2687 7.444 15.2207 7.164 16.322 7.164C18.002 7.164 19.3087 7.68666 20.242 8.732C21.1753 9.75866 21.642 11.3453 21.642 13.492V21.5H18.506V14.332C18.506 13.212 18.3753 12.3533 18.114 11.756C17.8527 11.14 17.4887 10.7107 17.022 10.468C16.574 10.2253 16.0513 10.104 15.454 10.104C14.39 10.0853 13.5687 10.4307 12.99 11.14C12.43 11.8493 12.15 12.8667 12.15 14.192V21.5H9.01399V0H8C5.19974 0 3.79961 0 2.73005 0.544967C1.78924 1.02433 1.02433 1.78924 0.544967 2.73005ZM8.89999 24H21.7V26.25H8.89999V24Z" fill="white"/>
</g>
<defs>
<clipPath id="clip0_693_1233">
<rect width="30" height="30" fill="white"/>
</clipPath>
</defs>
</svg>
